<?xml version="1.0" encoding="utf-8"?>
<!-- Generator: Adobe Illustrator 23.0.1, SVG Export Plug-In . SVG Version: 6.00 Build 0)  -->
<svg version="1.1" id="svg8" xmlns="http://www.w3.org/2000/svg" xmlns:xlink="http://www.w3.org/1999/xlink" x="0px" y="0px"
	 viewBox="0 0 2048 1024" style="enable-background:new 0 0 2048 1024;" xml:space="preserve">
<style type="text/css">
	.st0{fill:#132230;}
	.st1{fill:#FFFFFF;}
	.st2{fill:#DA4991;}
</style>
<title>serverless</title>
<g id="layer1">
	<rect id="rect18" class="st0" width="2048" height="1024"/>
</g>
<g id="layer2">
	<g>
		<path class="st1" d="M819.6,545.3v0.3c-0.1,9.9-4.2,19.4-11.4,26.3c-9.9,9.4-23.1,14.5-36.7,14.3h-0.2h-7.8
			c-23.2-0.1-42.6-14.2-47-32.8c-0.8-3.5,1.5-7,5-7.7c0.5-0.1,0.9-0.1,1.4-0.1c3.1,0,5.7,2.2,6.3,5.1c3.1,12.7,17.3,22.3,34.3,22.4
			h7.8c10.3,0.3,20.2-3.5,27.7-10.5c4.7-4.4,7.4-10.5,7.5-17v-0.3c0-11.4-9.1-21.7-22.7-25.8l-36.2-10.8c-19.1-5.7-32-21.1-32-38.3
			c0-22.4,21.6-40.6,48.1-40.6h7.8c23.3,0,42.8,14.1,47.2,32.7c0.8,3.5-1.5,7-5,7.7c-0.5,0.1-0.9,0.2-1.4,0.1
			c-3.1,0-5.7-2.2-6.3-5.1c-3.1-12.8-17.3-22.4-34.5-22.4h-7.8c-19.3,0-35,12.4-35,27.5c0,11.4,9.1,21.7,22.7,25.8l36.2,10.8
			C806.8,512.8,819.6,528.2,819.6,545.3z"/>
		<path class="st1" d="M940.2,579.7c0,3.6-2.9,6.5-6.5,6.5H849c-3.6,0-6.5-2.9-6.5-6.5V436.4c0-3.6,2.9-6.5,6.5-6.5h84.7
			c3.6-0.3,6.7,2.4,7,6c0.3,3.6-2.4,6.7-6,7c-0.3,0-0.7,0-1,0h-78.2v58.6h58.6c3.6,0.3,6.3,3.4,6,7c-0.3,3.2-2.8,5.7-6,6h-58.6v58.6
			h78.2C937.2,573.1,940.2,576,940.2,579.7C940.2,579.7,940.2,579.7,940.2,579.7z"/>
		<path class="st1" d="M1056,575.8c2.2,2.9,1.6,7-1.3,9.1c-2.9,2.2-7,1.6-9.1-1.3l-41-54.5H976v50.5c-0.3,3.6-3.4,6.3-7,6
			c-3.2-0.3-5.7-2.8-6-6V436.4c0-3.6,2.9-6.5,6.5-6.5h41.4c26.7,0,49.4,20.6,50.7,47.3c1.2,25.1-16.6,47.1-41.3,51.3L1056,575.8z
			 M1012,516.1c20.2-0.3,36.3-17,36-37.2c-0.3-19.7-16.3-35.7-36-36h-36v73.2H1012z"/>
		<path class="st1" d="M1185.2,432.4c1.2,1.7,1.6,3.9,0.9,5.9L1138,581.8c-0.9,2.7-3.4,4.4-6.2,4.4h-4.4c-2.8,0-5.3-1.8-6.2-4.5
			l-47.8-143.5c-1.1-3.4,0.7-7.1,4.1-8.2s7.1,0.7,8.2,4.1l43.8,131.5l44.1-131.5c1.1-3.4,4.8-5.3,8.2-4.1
			C1183.3,430.5,1184.4,431.3,1185.2,432.4L1185.2,432.4z"/>
		<path class="st1" d="M1306.9,579.7c0,3.6-2.9,6.5-6.5,6.5h-84.7c-3.6,0-6.5-2.9-6.5-6.5V436.4c0-3.6,2.9-6.5,6.5-6.5l0,0h84.7
			c3.6-0.3,6.7,2.4,7,6c0.3,3.6-2.4,6.7-6,7c-0.3,0-0.7,0-1,0h-78.2v58.6h58.6c3.6,0.3,6.3,3.4,6,7c-0.3,3.2-2.8,5.7-6,6h-58.6v58.6
			h78.2C1304,573.1,1306.9,576,1306.9,579.7C1306.9,579.7,1306.9,579.7,1306.9,579.7z"/>
		<path class="st1" d="M1422.7,575.8c2.2,2.9,1.6,7-1.3,9.1c-2.9,2.2-7,1.6-9.1-1.3l-41-54.5h-28.5v50.5c-0.3,3.6-3.4,6.3-7,6
			c-3.2-0.3-5.7-2.8-6-6V436.4c0-3.6,2.9-6.5,6.5-6.5h41.4c26.7,0,49.4,20.6,50.7,47.3c1.2,25.1-16.6,47.1-41.3,51.3L1422.7,575.8z
			 M1378.8,516.1c20.2-0.3,36.3-17,36-37.2c-0.3-19.7-16.3-35.7-36-36h-36v73.2H1378.8z"/>
		<path class="st1" d="M1546.8,579.7c0,3.6-2.9,6.5-6.5,6.5h-82.5c-3.6,0-6.5-2.9-6.5-6.5V436.4c0.3-3.6,3.4-6.3,7-6
			c3.2,0.3,5.7,2.8,6,6v136.8h76C1543.9,573.2,1546.8,576.1,1546.8,579.7C1546.8,579.7,1546.8,579.7,1546.8,579.7z"/>
		<path class="st1" d="M1667.3,579.7c0,3.6-2.9,6.5-6.5,6.5h-84.7c-3.6,0-6.5-2.9-6.5-6.5V436.4c0-3.6,2.9-6.5,6.5-6.5l0,0h84.7
			c3.6,0.3,6.3,3.4,6,7c-0.3,3.2-2.8,5.7-6,6h-78.2v58.6h58.6c3.6-0.3,6.7,2.4,7,6c0.3,3.6-2.4,6.7-6,7c-0.3,0-0.7,0-1,0h-58.6v58.6
			h78.2C1664.4,573.1,1667.3,576.1,1667.3,579.7C1667.3,579.7,1667.3,579.7,1667.3,579.7z"/>
		<path class="st1" d="M1794,545.3v0.3c-0.1,9.9-4.2,19.4-11.4,26.3c-9.9,9.4-23,14.5-36.6,14.3h-0.2h-7.8
			c-23.2-0.1-42.6-14.2-46.9-32.7c-0.8-3.5,1.5-7,5-7.7c0.5-0.1,0.9-0.1,1.4-0.1c3.1,0,5.7,2.2,6.3,5.1
			c3.1,12.7,17.3,22.3,34.3,22.4h7.8c10.3,0.3,20.2-3.5,27.7-10.5c4.7-4.4,7.4-10.5,7.5-17v-0.3c0-11.4-9.1-21.7-22.7-25.8
			l-36.2-10.8c-19.1-5.7-32-21.1-32-38.3c0-22.4,21.6-40.6,48.1-40.6h7.8c23.3,0,42.8,14.1,47.2,32.7c0.8,3.5-1.5,7-5,7.7
			c-0.5,0.1-0.9,0.2-1.4,0.1c-3.1,0-5.7-2.2-6.3-5.1c-3.1-12.8-17.3-22.4-34.4-22.4h-7.8c-19.3,0-35.1,12.4-35.1,27.5
			c0,11.4,9.1,21.7,22.7,25.8l36.2,10.8C1781.2,512.8,1794,528.2,1794,545.3z"/>
		<path class="st1" d="M1920.8,545.3v0.3c-0.1,9.9-4.2,19.4-11.4,26.3c-9.9,9.4-23.1,14.5-36.7,14.3h-0.2h-7.8
			c-23.2-0.1-42.6-14.2-46.9-32.7c-0.8-3.5,1.4-7,4.9-7.7c0.5-0.1,0.9-0.2,1.4-0.2c3.1,0,5.7,2.2,6.4,5.1
			c3.1,12.7,17.3,22.3,34.3,22.4h7.8c10.3,0.3,20.2-3.5,27.7-10.5c4.7-4.4,7.4-10.5,7.5-17v-0.3c0-11.4-9.1-21.7-22.7-25.8
			l-36.2-10.8c-19.1-5.7-32-21.1-32-38.3c0-22.4,21.6-40.6,48.1-40.6h7.8c23.3,0,42.8,14.1,47.2,32.7c0.8,3.5-1.5,7-5,7.7
			c-0.5,0.1-0.9,0.2-1.4,0.1c-3.1,0-5.7-2.2-6.3-5.1c-3.1-12.8-17.3-22.4-34.4-22.4h-7.8c-19.3,0-35.1,12.4-35.1,27.5
			c0,11.4,9.1,21.7,22.7,25.8l36.2,10.8C1907.9,512.8,1920.8,528.2,1920.8,545.3z"/>
	</g>
	<path id="rect844" class="st2" d="M212.8,341.3v68.3h123.7l19.3-68.3L212.8,341.3z M426.8,341.3l-19.3,68.3h232.4v-68.3H426.8z
		 M212.8,477.9v68.3h85.1l19.3-68.3H212.8z M388.1,477.9l-19.3,68.3h271v-68.3H388.1z M212.8,614.4v68.3h46.4l19.3-68.3H212.8z
		 M349.5,614.4l-19.3,68.3h309.7v-68.3H349.5z"/>
</g>
</svg>
